<mxfile host="app.diagrams.net" modified="2022-08-31T16:08:03.315Z" agent="5.0 (X11)" etag="_5MS7yBoC44-RLFH3Ne5" version="20.2.7" type="github">
  <diagram id="HosQMJa3Ksxo2QhjOf16" name="Page-1">
    <mxGraphModel dx="1422" dy="793" grid="1" gridSize="10" guides="1" tooltips="1" connect="1" arrows="1" fold="1" page="1" pageScale="1" pageWidth="850" pageHeight="1100" math="0" shadow="0">
      <root>
        <mxCell id="0" />
        <mxCell id="1" parent="0" />
        <mxCell id="HpNVdZE5cRyNFmhqkKaA-1" value="&lt;div&gt;IP:PORT&lt;/div&gt;&lt;div&gt;Match request&lt;br&gt;&lt;/div&gt;" style="rhombus;whiteSpace=wrap;html=1;" vertex="1" parent="1">
          <mxGeometry x="385" y="120" width="105" height="110" as="geometry" />
        </mxCell>
      </root>
    </mxGraphModel>
  </diagram>
</mxfile>
